<svg width="40" height="40" viewBox="0 0 40 40" fill="none" xmlns="http://www.w3.org/2000/svg">
<path d="M20.9699 10.3505H18.4583C18.1266 10.3505 17.8085 10.2192 17.5739 9.98549C17.3393 9.75179 17.2075 9.43483 17.2075 9.10432V1.24286C17.2075 1.07936 17.2399 0.917478 17.3028 0.766472C17.3657 0.615465 17.4579 0.478307 17.5741 0.362854C17.6903 0.247401 17.8282 0.155922 17.9799 0.0936581C18.1317 0.0313941 18.2942 -0.000431562 18.4583 4.41943e-06H20.9566C21.1207 -0.000431562 21.2833 0.0313941 21.435 0.0936581C21.5868 0.155922 21.7247 0.247401 21.8409 0.362854C21.9571 0.478307 22.0493 0.615465 22.1122 0.766472C22.1751 0.917478 22.2074 1.07936 22.2074 1.24286V9.10432C22.2074 9.43483 22.0757 9.75179 21.8411 9.98549C21.6065 10.2192 21.2884 10.3505 20.9566 10.3505" fill="#E65235"/>
<path d="M3.35354 32.0853L1.98297 30.0039C1.80132 29.7282 1.73679 29.392 1.80351 29.0689C1.87023 28.7459 2.06276 28.4624 2.33893 28.2805L9.60428 23.5278C9.88357 23.3482 10.223 23.2864 10.548 23.356C10.873 23.4256 11.1569 23.6209 11.3374 23.899L12.708 25.9804C12.7982 26.117 12.8605 26.27 12.8913 26.4306C12.9221 26.5912 12.9207 26.7563 12.8874 26.9164C12.854 27.0765 12.7892 27.2284 12.6968 27.3636C12.6044 27.4987 12.4861 27.6143 12.3487 27.7038L5.08339 32.4432C4.94629 32.5331 4.79274 32.5952 4.63152 32.6258C4.47031 32.6565 4.30462 32.6552 4.14392 32.6219C3.98322 32.5887 3.83068 32.5241 3.69506 32.4321C3.55943 32.34 3.44337 32.2221 3.35354 32.0853Z" fill="#E65235"/>
<path d="M37.4886 9.99921L36.1213 7.91453C36.0317 7.77742 35.9159 7.65927 35.7804 7.56686C35.6449 7.47445 35.4924 7.40961 35.3317 7.37605C35.171 7.34248 35.0052 7.34086 34.8438 7.37127C34.6825 7.40169 34.5288 7.46354 34.3915 7.55328L20.393 16.6709C20.1894 16.8037 19.9512 16.8745 19.7078 16.8745C19.4643 16.8745 19.2261 16.8037 19.0225 16.6709L5.08392 7.55659C4.80676 7.37592 4.469 7.31214 4.14471 7.37924C3.82042 7.44634 3.53609 7.63885 3.35407 7.91453L1.9835 9.9959C1.89319 10.1327 1.83084 10.286 1.80001 10.4469C1.76919 10.6077 1.7705 10.7731 1.80387 10.9335C1.83724 11.0938 1.90202 11.2461 1.99449 11.3815C2.08696 11.5169 2.20531 11.6328 2.34278 11.7226L16.6473 21.0722C16.8198 21.1852 16.9616 21.3392 17.0597 21.5203C17.1578 21.7013 17.2093 21.9038 17.2095 22.1096L17.2361 38.7572C17.2378 39.0874 17.3707 39.4035 17.6057 39.6364C17.8407 39.8693 18.1587 40 18.4902 40H20.9885C21.1528 39.9996 21.3153 39.9669 21.4669 39.9039C21.6185 39.8409 21.7562 39.7487 21.872 39.6327C21.9878 39.5167 22.0796 39.3791 22.1421 39.2277C22.2045 39.0763 22.2364 38.9142 22.236 38.7506L22.2094 22.1195C22.2092 21.9119 22.2607 21.7076 22.3595 21.5247C22.4582 21.3419 22.6009 21.1864 22.7749 21.0722L37.1293 11.726C37.4065 11.5451 37.6004 11.2621 37.6684 10.939C37.7364 10.6158 37.6729 10.2791 37.4919 10.0025" fill="#E65235"/>
<path d="M28.1296 23.8988L26.7723 25.9669C26.6821 26.1035 26.6198 26.2565 26.589 26.4171C26.5583 26.5777 26.5596 26.7428 26.593 26.9029C26.6263 27.063 26.6911 27.215 26.7835 27.3501C26.876 27.4852 26.9942 27.6008 27.1316 27.6903L34.3969 32.443C34.534 32.5329 34.6876 32.595 34.8488 32.6256C35.01 32.6563 35.1757 32.655 35.3364 32.6217C35.4971 32.5885 35.6496 32.5239 35.7853 32.4318C35.9209 32.3398 36.037 32.2219 36.1268 32.0851L37.4973 30.0037C37.5876 29.8671 37.6499 29.7141 37.6807 29.5535C37.7114 29.3929 37.7101 29.2278 37.6767 29.0677C37.6433 28.9076 37.5786 28.7556 37.4861 28.6205C37.3937 28.4854 37.2754 28.3698 37.1381 28.2803L29.8727 23.5276C29.5956 23.3469 29.2578 23.2832 28.9335 23.3503C28.6092 23.4174 28.3249 23.6099 28.1429 23.8856" fill="#E65235"/>
</svg>
