<svg width="342" height="86" viewBox="0 0 342 86" fill="none" xmlns="http://www.w3.org/2000/svg">
<g clip-path="url(#clip0_202_9974)">
<mask id="mask0_202_9974" style="mask-type:luminance" maskUnits="userSpaceOnUse" x="5" y="0" width="332" height="86">
<path d="M337 0.5H5V85.5493H337V0.5Z" fill="white"/>
</mask>
<g mask="url(#mask0_202_9974)">
<path d="M208.174 26.0313C206.188 26.0295 204.224 26.4457 202.411 27.2528C200.597 28.0598 198.974 29.2395 197.648 30.7147L195.855 26.7848H189.396V58.6114H197.627V37.2646C199.611 34.6446 202.569 32.9614 205.492 32.9614C209.325 32.9614 213.822 35.3348 213.822 39.5746V58.5903H222.068V38.6098C222.068 30.4401 215.079 26.0665 208.174 26.0665" fill="white"/>
<path d="M323.357 26.0433C319.29 26.0433 314.765 27.9097 312.393 30.7197V12.9014H311.581L304.324 16.4228V58.6164H312.393V37.2766C314.306 34.6496 317.208 32.9735 320.081 32.9735C323.837 32.9735 328.927 35.3469 328.927 39.5867V58.6023H336.996V38.6077C336.996 30.431 330.113 26.0644 323.357 26.0644" fill="white"/>
<path d="M253.759 16.3889V29.9463C250.945 27.3736 247.254 25.966 243.438 26.0094C234.931 26.0094 227.793 32.4395 227.793 42.6728C227.793 52.906 234.931 59.3361 243.438 59.3361C247.253 59.3786 250.942 57.974 253.759 55.4062L254.987 58.5896H261.884V12.8745H261.016L253.759 16.3889ZM253.759 49.0395C251.432 51.2236 248.382 52.4771 245.188 52.5609C240.183 52.5609 235.863 48.8141 235.799 42.6375C235.863 36.461 240.183 32.7142 245.188 32.7142C248.382 32.798 251.432 34.0515 253.759 36.2356V49.0395Z" fill="white"/>
<path d="M175.95 26.7832L174.447 30.1567C173.064 28.8019 171.422 27.7383 169.618 27.0293C167.815 26.3203 165.887 25.9803 163.949 26.0296C155.478 26.0296 148.312 32.4597 148.312 42.6929C148.312 52.9262 155.478 59.3563 163.949 59.3563C167.765 59.4002 171.454 57.9954 174.27 55.4264L175.506 58.6097H182.403V26.7832H175.95ZM174.27 49.0597C171.945 51.2449 168.894 52.4986 165.7 52.5811C160.695 52.5811 156.381 48.8343 156.318 42.6577C156.381 36.4811 160.695 32.7344 165.7 32.7344C168.894 32.8168 171.945 34.0705 174.27 36.2558V49.0597Z" fill="white"/>
<path d="M283.772 25.8334C274.595 25.8334 267.634 31.9536 267.634 42.2503C267.634 51.8567 273.762 59.1531 284.577 59.1531C289.081 59.1531 294.023 57.9065 296.649 56.4698L293.606 51.0186C291 51.9079 288.27 52.3832 285.516 52.4272C280.016 52.4272 276.218 49.6734 275.343 44.3209H298.463C298.52 43.2644 298.583 41.9404 298.59 41.7361C298.647 32.4959 293.331 25.8193 283.765 25.8193M275.639 38.6091C276.019 36.7537 277.043 35.0915 278.531 33.9152C280.019 32.739 281.875 32.1241 283.772 32.179C287.895 32.179 290.465 34.6158 291.022 38.6091H275.639Z" fill="white"/>
<path d="M134.524 47.8282C132.583 50.4481 129.71 52.1384 126.829 52.1384C123.073 52.1384 117.983 49.765 117.983 45.5181V26.7842H109.914V46.814C109.914 54.9907 117.447 59.3573 124.203 59.3573H124.245C128.707 59.3573 132.011 58.1741 134.439 55.9274C133.853 60.1531 131.397 63.0266 127.641 64.1605C126.344 64.4956 125.013 64.6823 123.674 64.7169C121.724 64.6957 119.782 64.493 117.871 64.1112V71.5977C120.01 72.0181 122.185 72.2397 124.365 72.2598C135.251 72.2598 142.53 65.3155 142.593 54.5189V26.7842H134.524V47.8282Z" fill="white"/>
<path d="M45.7286 22.4948H40.3986C39.6946 22.4948 39.0194 22.2158 38.5216 21.7192C38.0238 21.2226 37.7441 20.549 37.7441 19.8467V3.14107C37.7441 2.79365 37.8129 2.44964 37.9464 2.12875C38.0798 1.80786 38.2754 1.5164 38.522 1.27106C38.7686 1.02573 39.0613 0.831335 39.3833 0.699023C39.7053 0.566712 40.0503 0.499083 40.3986 0.500009H45.7004C46.0486 0.499083 46.3936 0.566712 46.7156 0.699023C47.0376 0.831335 47.3303 1.02573 47.5769 1.27106C47.8234 1.5164 48.0191 1.80786 48.1526 2.12875C48.286 2.44964 48.3548 2.79365 48.3548 3.14107V19.8467C48.3548 20.549 48.0751 21.2226 47.5773 21.7192C47.0795 22.2158 46.4043 22.4948 45.7004 22.4948" fill="white"/>
<path d="M8.34391 68.6817L5.43535 64.2588C5.04984 63.6729 4.91289 62.9584 5.05449 62.2719C5.19608 61.5855 5.60466 60.983 6.19073 60.5965L21.609 50.4971C22.2017 50.1155 22.922 49.9842 23.6116 50.1321C24.3013 50.28 24.9039 50.695 25.287 51.2859L28.1956 55.7088C28.387 55.999 28.5193 56.3241 28.5846 56.6655C28.6499 57.0068 28.647 57.3576 28.5762 57.6978C28.5054 58.038 28.368 58.3609 28.1718 58.6481C27.9757 58.9352 27.7247 59.1809 27.4332 59.3711L12.0149 69.4423C11.724 69.6333 11.3981 69.7652 11.056 69.8304C10.7139 69.8955 10.3622 69.8927 10.0212 69.822C9.68019 69.7514 9.35647 69.6143 9.06866 69.4186C8.78084 69.2229 8.53454 68.9725 8.34391 68.6817Z" fill="white"/>
<path d="M80.7839 21.7481L77.8823 17.3181C77.6922 17.0268 77.4464 16.7757 77.1588 16.5793C76.8713 16.383 76.5477 16.2452 76.2066 16.1739C75.8655 16.1025 75.5137 16.0991 75.1713 16.1637C74.8289 16.2283 74.5027 16.3598 74.2113 16.5505L44.5044 35.9253C44.0722 36.2077 43.5668 36.3581 43.0502 36.3581C42.5335 36.3581 42.0281 36.2077 41.5959 35.9253L12.016 16.5575C11.4279 16.1736 10.7111 16.0381 10.0229 16.1806C9.3347 16.3232 8.7313 16.7323 8.34503 17.3181L5.43646 21.741C5.24481 22.0318 5.11248 22.3575 5.04707 22.6994C4.98166 23.0412 4.98445 23.3926 5.05526 23.7334C5.12607 24.0742 5.26354 24.3977 5.45977 24.6854C5.65601 24.9732 5.90718 25.2195 6.19892 25.4104L36.5553 45.2782C36.9215 45.5184 37.2223 45.8456 37.4305 46.2303C37.6387 46.6151 37.748 47.0454 37.7484 47.4826L37.8049 82.8588C37.8086 83.5605 38.0906 84.2323 38.5893 84.7272C39.0881 85.2221 39.7629 85.4999 40.4663 85.4999H45.7681C46.1167 85.4989 46.4617 85.4295 46.7834 85.2956C47.1051 85.1617 47.3972 84.9658 47.643 84.7193C47.8888 84.4727 48.0836 84.1803 48.2161 83.8586C48.3487 83.537 48.4164 83.1925 48.4155 82.8447L48.359 47.5037C48.3586 47.0626 48.468 46.6283 48.6775 46.2398C48.887 45.8514 49.1899 45.5209 49.5591 45.2782L80.0214 25.4174C80.6098 25.0332 81.0213 24.4317 81.1655 23.7451C81.3098 23.0584 81.1751 22.3427 80.7909 21.7551" fill="white"/>
<path d="M60.9227 51.285L58.0424 55.6797C57.8509 55.9699 57.7187 56.295 57.6534 56.6364C57.5881 56.9777 57.5909 57.3285 57.6617 57.6687C57.7326 58.0089 57.87 58.3318 58.0662 58.619C58.2623 58.9061 58.5133 59.1518 58.8048 59.342L74.223 69.4414C74.514 69.6324 74.8398 69.7643 75.182 69.8294C75.5241 69.8946 75.8758 69.8918 76.2168 69.8211C76.5578 69.7505 76.8815 69.6134 77.1693 69.4177C77.4571 69.222 77.7034 68.9716 77.894 68.6808L80.8026 64.2579C80.9941 63.9676 81.1263 63.6425 81.1916 63.3012C81.2569 62.9599 81.2541 62.6091 81.1833 62.2689C81.1124 61.9287 80.975 61.6057 80.7788 61.3186C80.5827 61.0315 80.3317 60.7858 80.0402 60.5956L64.622 50.4962C64.0338 50.1122 63.317 49.9767 62.6288 50.1193C61.9406 50.2619 61.3372 50.671 60.9509 51.2568" fill="white"/>
</g>
</g>
<defs>
<clipPath id="clip0_202_9974">
<rect width="332" height="85" fill="white" transform="translate(5 0.5)"/>
</clipPath>
</defs>
</svg>
