<svg width="160" height="40" viewBox="0 0 160 40" fill="none" xmlns="http://www.w3.org/2000/svg">
<g clip-path="url(#clip0_2491_1134)">
<mask id="mask0_2491_1134" style="mask-type:luminance" maskUnits="userSpaceOnUse" x="1" y="0" width="158" height="41">
<path d="M158.222 0H1.77783V40.0232H158.222V0Z" fill="white"/>
</mask>
<g mask="url(#mask0_2491_1134)">
<path d="M97.5173 12.0147C96.5814 12.0138 95.656 12.2097 94.8013 12.5895C93.9466 12.9693 93.1819 13.5244 92.5573 14.2186L91.7123 12.3693H88.6685V27.3465H92.5473V17.3009C93.4821 16.068 94.8759 15.2759 96.2532 15.2759C98.0595 15.2759 100.179 16.3928 100.179 18.388V27.3365H104.064V17.9339C104.064 14.0894 100.771 12.0312 97.5173 12.0312" fill="#04283B"/>
<path d="M151.793 12.0204C149.877 12.0204 147.745 12.8987 146.627 14.2211V5.83594H146.244L142.825 7.49308V27.3489H146.627V17.3066C147.529 16.0704 148.896 15.2816 150.25 15.2816C152.019 15.2816 154.418 16.3985 154.418 18.3937V27.3423H158.22V17.933C158.22 14.0852 154.977 12.0303 151.793 12.0303" fill="#04283B"/>
<path d="M118.998 7.47707V13.857C117.671 12.6463 115.933 11.9839 114.134 12.0044C110.125 12.0044 106.762 15.0303 106.762 19.8459C106.762 24.6616 110.125 27.6875 114.134 27.6875C115.932 27.7075 117.67 27.0465 118.998 25.8382L119.576 27.3362H122.826V5.82324H122.417L118.998 7.47707ZM118.998 22.8421C117.901 23.8699 116.464 24.4598 114.959 24.4992C112.6 24.4992 110.565 22.736 110.535 19.8294C110.565 16.9228 112.6 15.1596 114.959 15.1596C116.464 15.199 117.901 15.7889 118.998 16.8167V22.8421Z" fill="#04283B"/>
<path d="M82.3328 12.3685L81.6242 13.9561C80.9725 13.3185 80.1987 12.818 79.3489 12.4844C78.4991 12.1507 77.5907 11.9907 76.6776 12.0139C72.6856 12.0139 69.3091 15.0399 69.3091 19.8555C69.3091 24.6711 72.6856 27.6971 76.6776 27.6971C78.4755 27.7178 80.2142 27.0566 81.5411 25.8477L82.1232 27.3458H85.3734V12.3685H82.3328ZM81.5411 22.8516C80.4453 23.88 79.0075 24.4699 77.5026 24.5087C75.144 24.5087 73.1114 22.7455 73.0815 19.8389C73.1114 16.9323 75.144 15.1691 77.5026 15.1691C79.0075 15.2079 80.4453 15.7979 81.5411 16.8262V22.8516Z" fill="#04283B"/>
<path d="M133.14 11.9217C128.816 11.9217 125.536 14.8018 125.536 19.6472C125.536 24.1679 128.423 27.6015 133.52 27.6015C135.642 27.6015 137.971 27.0149 139.208 26.3388L137.774 23.7735C136.546 24.192 135.26 24.4157 133.962 24.4364C131.371 24.4364 129.581 23.1405 129.168 20.6216H140.063C140.09 20.1245 140.12 19.5014 140.123 19.4053C140.15 15.057 137.645 11.915 133.137 11.915M129.308 17.9338C129.487 17.0606 129.97 16.2784 130.671 15.7249C131.372 15.1713 132.246 14.882 133.14 14.9078C135.083 14.9078 136.294 16.0546 136.557 17.9338H129.308Z" fill="#04283B"/>
<path d="M62.812 22.2722C61.8971 23.5051 60.5432 24.3005 59.1859 24.3005C57.4162 24.3005 55.0177 23.1836 55.0177 21.1851V12.3691H51.2153V21.7949C51.2153 25.6428 54.7648 27.6977 57.9484 27.6977H57.9684C60.0708 27.6977 61.6277 27.1409 62.772 26.0836C62.4959 28.0722 61.3383 29.4244 59.5685 29.958C58.9573 30.1157 58.3301 30.2035 57.6989 30.2198C56.7805 30.2099 55.865 30.1144 54.9644 29.9348V33.4579C55.9728 33.6557 56.9973 33.76 58.0249 33.7694C63.1546 33.7694 66.5843 30.5015 66.6143 25.4208V12.3691H62.812V22.2722Z" fill="#04283B"/>
<path d="M20.9699 10.3505H18.4583C18.1266 10.3505 17.8085 10.2192 17.5739 9.98549C17.3393 9.75179 17.2075 9.43483 17.2075 9.10432V1.24286C17.2075 1.07936 17.2399 0.917478 17.3028 0.766472C17.3657 0.615465 17.4579 0.478307 17.5741 0.362854C17.6903 0.247401 17.8282 0.155922 17.9799 0.0936581C18.1317 0.0313941 18.2942 -0.000431562 18.4583 4.41943e-06H20.9566C21.1207 -0.000431562 21.2833 0.0313941 21.435 0.0936581C21.5868 0.155922 21.7247 0.247401 21.8409 0.362854C21.9571 0.478307 22.0493 0.615465 22.1122 0.766472C22.1751 0.917478 22.2074 1.07936 22.2074 1.24286V9.10432C22.2074 9.43483 22.0757 9.75179 21.8411 9.98549C21.6065 10.2192 21.2884 10.3505 20.9566 10.3505" fill="#E65235"/>
<path d="M3.35354 32.0853L1.98297 30.0039C1.80132 29.7282 1.73679 29.392 1.80351 29.0689C1.87023 28.7459 2.06276 28.4624 2.33893 28.2805L9.60428 23.5278C9.88357 23.3482 10.223 23.2864 10.548 23.356C10.873 23.4256 11.1569 23.6209 11.3374 23.899L12.708 25.9804C12.7982 26.117 12.8605 26.27 12.8913 26.4306C12.9221 26.5912 12.9207 26.7563 12.8874 26.9164C12.854 27.0765 12.7892 27.2284 12.6968 27.3636C12.6044 27.4987 12.4861 27.6143 12.3487 27.7038L5.08339 32.4432C4.94629 32.5331 4.79274 32.5952 4.63152 32.6258C4.47031 32.6565 4.30462 32.6552 4.14392 32.6219C3.98322 32.5887 3.83068 32.5241 3.69506 32.4321C3.55943 32.34 3.44337 32.2221 3.35354 32.0853Z" fill="#E65235"/>
<path d="M37.4886 9.99921L36.1213 7.91453C36.0317 7.77742 35.9159 7.65927 35.7804 7.56686C35.6449 7.47445 35.4924 7.40961 35.3317 7.37605C35.171 7.34248 35.0052 7.34086 34.8438 7.37127C34.6825 7.40169 34.5288 7.46354 34.3915 7.55328L20.393 16.6709C20.1894 16.8037 19.9512 16.8745 19.7078 16.8745C19.4643 16.8745 19.2261 16.8037 19.0225 16.6709L5.08392 7.55659C4.80676 7.37592 4.469 7.31214 4.14471 7.37924C3.82042 7.44634 3.53609 7.63885 3.35407 7.91453L1.9835 9.9959C1.89319 10.1327 1.83084 10.286 1.80001 10.4469C1.76919 10.6077 1.7705 10.7731 1.80387 10.9335C1.83724 11.0938 1.90202 11.2461 1.99449 11.3815C2.08696 11.5169 2.20531 11.6328 2.34278 11.7226L16.6473 21.0722C16.8198 21.1852 16.9616 21.3392 17.0597 21.5203C17.1578 21.7013 17.2093 21.9038 17.2095 22.1096L17.2361 38.7572C17.2378 39.0874 17.3707 39.4035 17.6057 39.6364C17.8407 39.8693 18.1587 40 18.4902 40H20.9885C21.1528 39.9996 21.3153 39.9669 21.4669 39.9039C21.6185 39.8409 21.7562 39.7487 21.872 39.6327C21.9878 39.5167 22.0796 39.3791 22.1421 39.2277C22.2045 39.0763 22.2364 38.9142 22.236 38.7506L22.2094 22.1195C22.2092 21.9119 22.2607 21.7076 22.3595 21.5247C22.4582 21.3419 22.6009 21.1864 22.7749 21.0722L37.1293 11.726C37.4065 11.5451 37.6004 11.2621 37.6684 10.939C37.7364 10.6158 37.6729 10.2791 37.4919 10.0025" fill="#E65235"/>
<path d="M28.1296 23.8988L26.7723 25.9669C26.6821 26.1035 26.6198 26.2565 26.589 26.4171C26.5583 26.5777 26.5596 26.7428 26.593 26.9029C26.6263 27.063 26.6911 27.215 26.7835 27.3501C26.876 27.4852 26.9942 27.6008 27.1316 27.6903L34.3969 32.443C34.534 32.5329 34.6876 32.595 34.8488 32.6256C35.01 32.6563 35.1757 32.655 35.3364 32.6217C35.4971 32.5885 35.6496 32.5239 35.7853 32.4318C35.9209 32.3398 36.037 32.2219 36.1268 32.0851L37.4973 30.0037C37.5876 29.8671 37.6499 29.7141 37.6807 29.5535C37.7114 29.3929 37.7101 29.2278 37.6767 29.0677C37.6433 28.9076 37.5786 28.7556 37.4861 28.6205C37.3937 28.4854 37.2754 28.3698 37.1381 28.2803L29.8727 23.5276C29.5956 23.3469 29.2578 23.2832 28.9335 23.3503C28.6092 23.4174 28.3249 23.6099 28.1429 23.8856" fill="#E65235"/>
</g>
</g>
<defs>
<clipPath id="clip0_2491_1134">
<rect width="156.444" height="40" fill="white" transform="translate(1.77783)"/>
</clipPath>
</defs>
</svg>
